<?xml version="1.0" encoding="UTF-8"?><svg id="Ebene_1" xmlns="http://www.w3.org/2000/svg" viewBox="0 0 400 85.31"><defs><style>.cls-1{fill:#fff;}.cls-2{fill:#53519e;}</style></defs><path class="cls-2" d="M85.29,42.65c0,23.56-19.1,42.65-42.65,42.65S0,66.21,0,42.65,19.1,0,42.65,0s42.65,19.1,42.65,42.65"/><path class="cls-1" d="M22.64,33.89c-2.59,0-4.7-2.11-4.7-4.68s2.11-4.68,4.7-4.68,4.7,2.11,4.7,4.68-2.11,4.68-4.7,4.68Zm0-7.69c-1.66,0-2.99,1.35-2.99,2.99s1.35,2.99,2.99,2.99,2.99-1.35,2.99-2.99-1.35-2.99-2.99-2.99Z"/><path class="cls-1" d="M62.06,25.46c-2.59,0-4.7-2.11-4.7-4.68s2.11-4.68,4.7-4.68,4.7,2.11,4.7,4.68-2.11,4.68-4.7,4.68Zm0-7.69c-1.66,0-2.99,1.35-2.99,2.99s1.35,2.99,2.99,2.99,2.99-1.35,2.99-2.99-1.35-2.99-2.99-2.99Z"/><path class="cls-1" d="M70.46,24.5c-2.59,0-4.7,2.11-4.7,4.7,0,1.82-.08,2.86-.45,3.25-.39,.39-1.43,.45-3.25,.45-2.59,0-4.68,2.11-4.68,4.68v13.92c0,1.4-.72,2.27-1.88,2.27s-1.88-.87-1.88-2.27v-15.7c0-6.73-4.63-11.42-11.26-11.42-2.85,0-5.39,.87-7.39,2.53-1.82,1.5-3.04,3.57-3.57,6h-.35c-2.59,0-4.7,2.11-4.7,4.7,0,1.82-.08,2.88-.45,3.25-.39,.39-1.43,.45-3.25,.45-2.59,0-4.68,2.11-4.68,4.68v5.53c0,6.73,4.63,11.42,11.26,11.42s11.26-4.7,11.26-11.42v-15.7c0-1.4,.72-2.27,1.88-2.27s1.88,.87,1.88,2.27v15.7c0,2.64,.69,4.99,2.03,6.89-1.9,.6-3.28,2.38-3.28,4.47,0,1.82-.08,2.88-.45,3.25-.37,.37-1.43,.45-3.25,.45-2.59,0-4.7,2.11-4.7,4.7s2.11,4.7,4.7,4.7,4.7-2.11,4.7-4.7c0-1.82,.08-2.86,.45-3.25,.39-.39,1.43-.45,3.25-.45,2.59,0,4.7-2.11,4.7-4.7v-.34c1,.26,2.06,.39,3.15,.39,6.63,0,11.26-4.7,11.26-11.42v-13.92c0-1.82,.08-2.86,.45-3.25,.39-.39,1.43-.45,3.25-.45,2.59,0,4.7-2.11,4.7-4.7s-2.11-4.7-4.7-4.7m-28.21,46.79c0,1.66-1.35,2.99-2.99,2.99s-2.99-1.35-2.99-2.99,1.35-2.99,2.99-2.99c1.35,0,2.45-.03,3.28-.27-.26,.84-.27,1.91-.27,3.28m-14.22-33.69c0-1.66,1.35-2.99,2.99-2.99,.27,0,.55,.03,.82,.11,1.29,.35,2.19,1.54,2.19,2.88s-.95,2.59-2.3,2.91c-.23,.05-.47,.08-.71,.08-1.37,0-2.45,.03-3.28,.29,.26-.84,.29-1.93,.29-3.28Zm-.26,5.15c.39-.39,1.45-.47,3.25-.47h.05v9.24c0,1.4-.72,2.27-1.88,2.27s-1.88-.87-1.88-2.27v-5.52c0-1.82,.08-2.88,.47-3.25Zm22.61,18.89c.18,.4,.27,.82,.27,1.26,0,1.66-1.35,2.99-2.99,2.99-1.35,0-2.45,.03-3.28,.27,.26-.84,.27-1.91,.27-3.28,0-1.66,1.35-2.99,2.99-2.99h.16c1.11,.06,2.09,.72,2.56,1.74m14.67-24.05v13.93c0,5.82-3.85,9.73-9.57,9.73-1.34,0-2.57-.23-3.73-.66-.72-1.3-2.01-2.17-3.48-2.37-1.54-1.72-2.35-4.04-2.35-6.73v-15.7c0-2.33-1.46-3.97-3.57-3.97s-3.57,1.63-3.57,3.97v15.7c0,5.82-3.85,9.73-9.57,9.73s-9.57-3.91-9.57-9.73v-5.53c0-1.66,1.35-2.99,2.99-2.99,1.35,0,2.45-.03,3.28-.29-.26,.84-.29,1.93-.29,3.28v5.52c0,2.33,1.46,3.97,3.57,3.97s3.57-1.63,3.57-3.97v-9.57c1.77-.69,2.94-2.4,2.94-4.36,0-1.83-1.08-3.48-2.69-4.25,.95-4.44,4.54-7.26,9.3-7.26,5.73,0,9.57,3.91,9.57,9.73v15.7c0,2.33,1.46,3.97,3.57,3.97s3.57-1.63,3.57-3.97v-13.93c0-1.64,1.35-2.98,2.99-2.98,1.35,0,2.45-.03,3.28-.27-.26,.84-.27,1.91-.27,3.27m5.41-5.39c-1.35,0-2.45,.03-3.28,.27,.26-.84,.27-1.91,.27-3.28,0-1.66,1.35-2.99,2.99-2.99s2.99,1.35,2.99,2.99-1.35,2.99-2.99,2.99"/><path class="cls-2" d="M153.55,28.83c0-2.16,1.75-3.91,3.91-3.91s3.91,1.75,3.91,3.91v22.72c0,6.56-4.54,10.76-10.59,10.76s-10.59-4.2-10.59-10.76v-15.98c0-1.93-1.13-3.17-2.77-3.17s-2.77,1.24-2.77,3.17v15.98c0,6.56-4.54,10.76-10.59,10.76s-10.59-4.2-10.59-10.76V28.83c0-2.16,1.75-3.91,3.91-3.91s3.91,1.75,3.91,3.91v22.72c0,1.93,1.13,3.17,2.77,3.17s2.78-1.24,2.78-3.17v-15.98c0-6.56,4.54-10.76,10.59-10.76s10.59,4.2,10.59,10.76v15.98c0,1.93,1.13,3.17,2.78,3.17s2.77-1.24,2.77-3.17V28.83h-.03Z"/><path class="cls-2" d="M189.62,54.21h-7.82c-3.14,0-5.65-1.53-6.97-3.8h9.96c6.58,0,10.43-4.02,10.43-9.41s-3.85-9.46-10.43-9.46h-2.99c-9.35,0-15.57,6.85-15.57,15.01s6.23,15.01,15.57,15.01h7.82c2.04,0,3.68-1.64,3.68-3.68s-1.64-3.68-3.68-3.68m-7.82-15.29h2.99c1.87,0,2.83,.9,2.83,2.2s-1.08,2.27-2.83,2.27h-10.31c1.19-2.64,3.86-4.47,7.32-4.47Z"/><path class="cls-2" d="M203.2,61.58c-1.71,0-3.12-1.42-3.12-3.12V28.67c0-1.71,1.42-3.12,3.12-3.12h10.47c10.7,0,18.46,7.87,18.46,18s-7.76,18.02-18.46,18.02h-10.47Zm10.36-7.48c6.23,0,10.76-4.59,10.76-10.54s-4.54-10.54-10.76-10.54h-5.66v21.08h5.66Z"/><path class="cls-2" d="M251.17,62.32c-9.4,0-15.98-7.03-15.98-15.75s6.57-15.75,15.98-15.75,15.98,7.03,15.98,15.75-6.63,15.75-15.98,15.75Zm0-24.14c-4.92,0-8.38,3.8-8.38,8.38s3.51,8.38,8.38,8.38,8.38-3.8,8.38-8.38-3.46-8.38-8.38-8.38Z"/><path class="cls-2" d="M312.1,28.83c0-2.16,1.75-3.91,3.91-3.91s3.91,1.75,3.91,3.91v22.72c0,6.56-4.54,10.76-10.59,10.76s-10.59-4.2-10.59-10.76v-15.98c0-1.93-1.13-3.17-2.77-3.17s-2.77,1.24-2.77,3.17v15.98c0,6.56-4.54,10.76-10.59,10.76s-10.59-4.2-10.59-10.76V28.83c0-2.16,1.75-3.91,3.91-3.91s3.91,1.75,3.91,3.91v22.72c0,1.93,1.13,3.17,2.77,3.17s2.78-1.24,2.78-3.17v-15.98c0-6.56,4.54-10.76,10.59-10.76s10.59,4.2,10.59,10.76v15.98c0,1.93,1.13,3.17,2.78,3.17s2.77-1.24,2.77-3.17V28.83h-.03Z"/><path class="cls-2" d="M325.89,23.01c0-2.54,2.04-4.59,4.59-4.59s4.59,2.04,4.59,4.59-2.04,4.59-4.59,4.59-4.59-2.04-4.59-4.59Zm.79,11.73c0-2.09,1.69-3.8,3.8-3.8s3.8,1.71,3.8,3.8v23.67c0,2.09-1.71,3.8-3.8,3.8s-3.8-1.71-3.8-3.8v-23.67Z"/><path class="cls-2" d="M359.76,44.59c0-3.28-2.43-5.66-5.66-5.66h-6.11v19.49c0,2.09-1.71,3.8-3.8,3.8s-3.8-1.71-3.8-3.8v-23.73c0-1.71,1.42-3.12,3.12-3.12h10.81c7.42,0,13.03,5.6,13.03,13.03v13.82c0,2.09-1.71,3.8-3.8,3.8s-3.8-1.71-3.8-3.8v-13.82Z"/><path class="cls-2" d="M386.23,61.58c-9.06,0-15.46-6.74-15.46-15.01s6.4-15.01,15.46-15.01h6.18v-8.66c0-2.09,1.71-3.8,3.8-3.8s3.8,1.71,3.8,3.8V58.47c0,1.71-1.42,3.12-3.12,3.12h-10.65v-.02Zm6.18-22.65h-6.18c-4.59,0-7.87,3.46-7.87,7.64s3.28,7.64,7.87,7.64h6.18v-15.29Z"/></svg>